<svg xmlns="http://www.w3.org/2000/svg" width="500" height="500" fill="none"><path fill="#1E1E1E" d="M0 0h500v500H0z"/><g clip-path="url(#a)"><path fill="#53BFC9" d="M134.802 336.4c-20.2 0-37.1-4-50.7-12-17-9.8-25.5-24-25.5-42.6 0-18.8 8.4-35.5 25.2-50.1 15.8-14 33.3-21 52.5-21 8.2 0 12.3.8 12.3 2.4 0 .8-3 1.1-9 .9-19.4 0-35.5 5.8-48.3 17.4-13.6 12.4-20.4 28-20.4 46.8 0 16.8 5.6 30.2 16.8 40.2 11.2 10 25.4 15 42.6 15 14.4 0 30.6-3.5 48.6-10.5 31.4-12.8 47.1-32.5 47.1-59.1 0-15.6-7.2-28.9-21.6-39.9l-39.9-25.8c-14.2-10.6-21.3-22.4-21.3-35.4 0-9.4 3.4-17.8 10.2-25.2-6.4.6-11.7 3.7-15.9 9.3-4.2 5.4-6.3 11.4-6.3 18 0 14 6.4 26.2 19.2 36.6l36.9 25.2c13.6 10.4 21.1 22.4 22.5 36 4-4 7.1-6 9.3-6 1.6 0 2.4 1.2 2.4 3.6 0 7-4.9 14.5-14.7 22.5-4.4 11.6-13.2 22.1-26.4 31.5-12.8 9.2-25.5 13.8-38.1 13.8-1 0-1.5-.3-1.5-.9 0-1.2.8-1.8 2.4-1.8l11.4-1.8c9.4-2.6 18.3-7.4 26.7-14.4 8.4-7.2 14.6-15.2 18.6-24-4-4.6-6-10-6-16.2 0-6.8 1.7-10.2 5.1-10.2 1.6 0 3.1.7 4.5 2.1-.8-6.4-3.1-12.5-6.9-18.3-3.6-5.8-8.8-11-15.6-15.6l-35.4-24.3c-12.4-10.6-18.6-23.1-18.6-37.5 0-8 2.6-14.9 7.8-20.7 5.4-6 12.1-9 20.1-9h.6c14.8-14.2 34.7-21.3 59.7-21.3 21.6 0 36.6 4.9 45 14.7 3 3.2 4.5 6.8 4.5 10.8 0 6.8-4.4 11.9-13.2 15.3-6.2 2.4-13.5 3.6-21.9 3.6-4 0-8.2-.3-12.6-.9-4.4-.6-9.1-1.4-14.1-2.4-11.4-2.8-19.6-6.1-24.6-9.9-.4-.4-.6-.7-.6-.9 0-.6.3-.9.9-.9.6 0 1 .1 1.2.3 11.8 7.6 28.1 11.4 48.9 11.4 6.6 0 12.6-1.1 18-3.3 7-2.8 10.5-7 10.5-12.6 0-7.6-5.5-13.3-16.5-17.1-8.4-2.8-16.9-4.2-25.5-4.2-26.2 0-44.1 8.4-53.7 25.2-3.2 5.2-4.8 10.9-4.8 17.1 0 12.4 7.1 23.6 21.3 33.6l39.6 25.2c14.2 11.8 21.3 26.3 21.3 43.5 0 23.2-12 41.9-36 56.1-20.2 11.8-42.9 17.7-68.1 17.7Z"/><path fill="#C75194" d="M334.9 336.4c-20.2 0-37.1-4-50.7-12-17-9.8-25.5-24-25.5-42.6 0-18.8 8.4-35.5 25.2-50.1 15.8-14 33.3-21 52.5-21 8.2 0 12.3.8 12.3 2.4 0 .8-3 1.1-9 .9-19.4 0-35.5 5.8-48.3 17.4-13.6 12.4-20.4 28-20.4 46.8 0 16.8 5.6 30.2 16.8 40.2 11.2 10 25.4 15 42.6 15 14.4 0 30.6-3.5 48.6-10.5 31.4-12.8 47.1-32.5 47.1-59.1 0-15.6-7.2-28.9-21.6-39.9l-39.9-25.8c-14.2-10.6-21.3-22.4-21.3-35.4 0-9.4 3.4-17.8 10.2-25.2-6.4.6-11.7 3.7-15.9 9.3-4.2 5.4-6.3 11.4-6.3 18 0 14 6.4 26.2 19.2 36.6l36.9 25.2c13.6 10.4 21.1 22.4 22.5 36 4-4 7.1-6 9.3-6 1.6 0 2.4 1.2 2.4 3.6 0 7-4.9 14.5-14.7 22.5-4.4 11.6-13.2 22.1-26.4 31.5-12.8 9.2-25.5 13.8-38.1 13.8-1 0-1.5-.3-1.5-.9 0-1.2.8-1.8 2.4-1.8l11.4-1.8c9.4-2.6 18.3-7.4 26.7-14.4 8.4-7.2 14.6-15.2 18.6-24-4-4.6-6-10-6-16.2 0-6.8 1.7-10.2 5.1-10.2 1.6 0 3.1.7 4.5 2.1-.8-6.4-3.1-12.5-6.9-18.3-3.6-5.8-8.8-11-15.6-15.6l-35.4-24.3c-12.4-10.6-18.6-23.1-18.6-37.5 0-8 2.6-14.9 7.8-20.7 5.4-6 12.1-9 20.1-9h.6c14.8-14.2 34.7-21.3 59.7-21.3 21.6 0 36.6 4.9 45 14.7 3 3.2 4.5 6.8 4.5 10.8 0 6.8-4.4 11.9-13.2 15.3-6.2 2.4-13.5 3.6-21.9 3.6-4 0-8.2-.3-12.6-.9-4.4-.6-9.1-1.4-14.1-2.4-11.4-2.8-19.6-6.1-24.6-9.9-.4-.4-.6-.7-.6-.9 0-.6.3-.9.9-.9.6 0 1 .1 1.2.3 11.8 7.6 28.1 11.4 48.9 11.4 6.6 0 12.6-1.1 18-3.3 7-2.8 10.5-7 10.5-12.6 0-7.6-5.5-13.3-16.5-17.1-8.4-2.8-16.9-4.2-25.5-4.2-26.2 0-44.1 8.4-53.7 25.2-3.2 5.2-4.8 10.9-4.8 17.1 0 12.4 7.1 23.6 21.3 33.6l39.6 25.2c14.2 11.8 21.3 26.3 21.3 43.5 0 23.2-12 41.9-36 56.1-20.2 11.8-42.9 17.7-68.1 17.7Z"/></g><defs><clipPath id="a"><path fill="#fff" d="M0 0h500v500H0z"/></clipPath></defs></svg>